<svg id="starReflection" version="1.1" viewBox="0 0 600 600" xmlns="http://www.w3.org/2000/svg">
<circle cx="288" cy="593" r=".4" fill="#fff"/>
<circle cx="301" cy="578" r=".4" fill="#fff"/>
<circle cx="306" cy="571" r=".4" fill="#fff"/>
<circle cx="282" cy="577" r=".4" fill="#fff"/>
<circle cx="258" cy="561" r=".4" fill="#fff"/>
<circle cx="288" cy="531" r=".4" fill="#fff"/>
<circle cx="241" cy="525" r=".4" fill="#fff"/>
<circle cx="183" cy="514" r=".4" fill="#fff"/>
<circle cx="146" cy="519" r=".4" fill="#fff"/>
<circle cx="105" cy="518" r=".4" fill="#fff"/>
<circle cx="256" cy="518" r=".4" fill="#fff"/>
<circle cx="239" cy="508" r=".4" fill="#fff"/>
<circle cx="200" cy="511" r=".4" fill="#fff"/>
<circle cx="177" cy="529" r=".9" fill="#fff"/>
<circle cx="199" cy="549" r=".4" fill="#fff"/>
<circle cx="133" cy="531" r=".4" fill="#fff"/>
<circle cx="162" cy="536" r=".4" fill="#fff"/>
<circle cx="157" cy="564" r=".4" fill="#fff"/>
<circle cx="174" cy="535" r=".4" fill="#fff"/>
<circle cx="252" cy="576" r=".4" fill="#fff"/>
<circle cx="234" cy="567" r=".4" fill="#fff"/>
<circle cx="264" cy="491" r=".4" fill="#fff"/>
<circle cx="265" cy="485" r=".4" fill="#fff"/>
<circle cx="269" cy="469" r=".4" fill="#fff"/>
<circle cx="291" cy="439" r=".4" fill="#fff"/>
<circle cx="255" cy="448" r=".4" fill="#fff"/>
<circle cx="246" cy="477" r=".4" fill="#fff"/>
<circle cx="232" cy="480" r=".4" fill="#fff"/>
<circle cx="224" cy="471" r=".4" fill="#fff"/>
<circle cx="230" cy="462" r=".4" fill="#fff"/>
<circle cx="238" cy="452" r=".4" fill="#fff"/>
<circle cx="231" cy="440" r=".4" fill="#fff"/>
<circle cx="180" cy="423" r=".4" fill="#fff"/>
<circle cx="256" cy="402" r=".4" fill="#fff"/>
<circle cx="236" cy="400" r=".4" fill="#fff"/>
<circle cx="224" cy="400" r=".4" fill="#fff"/>
<circle cx="244" cy="385" r=".4" fill="#fff"/>
<circle cx="267" cy="372" r=".4" fill="#fff"/>
<circle cx="291" cy="366" r=".4" fill="#fff"/>
<circle cx="260" cy="351" r=".4" fill="#fff"/>
<circle cx="248" cy="354" r=".4" fill="#fff"/>
<circle cx="240" cy="363" r=".4" fill="#fff"/>
<circle cx="245" cy="369" r=".4" fill="#fff"/>
<circle cx="234" cy="353" r=".4" fill="#fff"/>
<circle cx="222" cy="357" r=".4" fill="#fff"/>
<circle cx="190" cy="365" r=".4" fill="#fff"/>
<circle cx="171" cy="389" r=".4" fill="#fff"/>
<circle cx="199" cy="400" r=".4" fill="#fff"/>
<circle cx="131" cy="375" r=".4" fill="#fff"/>
<circle cx="113" cy="389" r=".9" fill="#fff"/>
<circle cx="101" cy="394" r=".4" fill="#fff"/>
<circle cx="105" cy="383" r=".4" fill="#fff"/>
<circle cx="104" cy="373" r=".4" fill="#fff"/>
<circle cx="75" cy="361" r=".4" fill="#fff"/>
<circle cx="108" cy="358" r=".4" fill="#fff"/>
<circle cx="84" cy="375" r=".4" fill="#fff"/>
<circle cx="66" cy="379" r=".4" fill="#fff"/>
<circle cx="11" cy="390" r=".4" fill="#fff"/>
<circle cx="46" cy="399" r=".4" fill="#fff"/>
<circle cx="40" cy="416" r=".9" fill="#fff"/>
<circle cx="74" cy="449" r=".4" fill="#fff"/>
<circle cx="125" cy="448" r=".4" fill="#fff"/>
<circle cx="146" cy="434" r=".4" fill="#fff"/>
<circle cx="184" cy="433" r=".4" fill="#fff"/>
<circle cx="185" cy="412" r=".4" fill="#fff"/>
<circle cx="117" cy="456" r=".4" fill="#fff"/>
<circle cx="164" cy="477" r=".4" fill="#fff"/>
<circle cx="165" cy="464" r=".4" fill="#fff"/>
<circle cx="186" cy="480" r=".4" fill="#fff"/>
<circle cx="202" cy="499" r=".4" fill="#fff"/>
<circle cx="89" cy="487" r=".4" fill="#fff"/>
<circle cx="90" cy="484" r=".4" fill="#fff"/>
<circle cx="79" cy="487" r=".4" fill="#fff"/>
<circle cx="57" cy="397" r=".4" fill="#fff"/>
<circle cx="46" cy="447" r=".4" fill="#fff"/>
<circle cx="75" cy="483" r=".4" fill="#fff"/>
<circle cx="80" cy="477" r=".4" fill="#fff"/>
<circle cx="112" cy="481" r=".4" fill="#fff"/>
<circle cx="116" cy="340" r=".4" fill="#fff"/>
<circle cx="96" cy="310" r=".4" fill="#fff"/>
<circle cx="73" cy="311" r=".4" fill="#fff"/>
<circle cx="51" cy="309" r=".4" fill="#fff"/>
<circle cx="46" cy="305" r=".4" fill="#fff"/>
<circle cx="22" cy="290" r=".9" fill="#fff"/>
<circle cx="19" cy="260" r=".4" fill="#fff"/>
<circle cx="55" cy="242" r=".4" fill="#fff"/>
<circle cx="7" cy="251" r=".4" fill="#fff"/>
<circle cx="13" cy="237" r=".4" fill="#fff"/>
<circle cx="10" cy="254" r=".4" fill="#fff"/>
<circle cx=".4" cy="245" r=".4" fill="#fff"/>
<circle cx="12" cy="270" r=".4" fill="#fff"/>
<circle cx="32" cy="267" r=".4" fill="#fff"/>
<circle cx="65" cy="291" r=".4" fill="#fff"/>
<circle cx="64" cy="300" r=".4" fill="#fff"/>
<circle cx="75" cy="300" r=".4" fill="#fff"/>
<circle cx="84" cy="294" r=".4" fill="#fff"/>
<circle cx="90" cy="290" r=".4" fill="#fff"/>
<circle cx="106" cy="273" r=".4" fill="#fff"/>
<circle cx="128" cy="291" r=".4" fill="#fff"/>
<circle cx="129" cy="288" r=".4" fill="#fff"/>
<circle cx="151" cy="296" r=".4" fill="#fff"/>
<circle cx="179" cy="296" r=".4" fill="#fff"/>
<circle cx="184" cy="294" r=".4" fill="#fff"/>
<circle cx="203" cy="272" r=".4" fill="#fff"/>
<circle cx="296" cy="284" r=".4" fill="#fff"/>
<circle cx="261" cy="261" r=".4" fill="#fff"/>
<circle cx="247" cy="263" r=".4" fill="#fff"/>
<circle cx="270" cy="245" r=".4" fill="#fff"/>
<circle cx="267" cy="241" r=".4" fill="#fff"/>
<circle cx="254" cy="236" r=".4" fill="#fff"/>
<circle cx="237" cy="244" r=".4" fill="#fff"/>
<circle cx="230" cy="252" r=".4" fill="#fff"/>
<circle cx="222" cy="250" r=".4" fill="#fff"/>
<circle cx="220" cy="234" r=".4" fill="#fff"/>
<circle cx="217" cy="232" r=".4" fill="#fff"/>
<circle cx="222" cy="212" r=".4" fill="#fff"/>
<circle cx="179" cy="239" r=".4" fill="#fff"/>
<circle cx="182" cy="232" r=".4" fill="#fff"/>
<circle cx="174" cy="234" r=".4" fill="#fff"/>
<circle cx="167" cy="235" r=".4" fill="#fff"/>
<circle cx="174" cy="230" r=".4" fill="#fff"/>
<circle cx="146" cy="238" r=".4" fill="#fff"/>
<circle cx="150" cy="222" r=".4" fill="#fff"/>
<circle cx="142" cy="204" r=".4" fill="#fff"/>
<circle cx="138" cy="188" r=".4" fill="#fff"/>
<circle cx="157" cy="175" r=".4" fill="#fff"/>
<circle cx="174" cy="182" r=".4" fill="#fff"/>
<circle cx="175" cy="177" r=".4" fill="#fff"/>
<circle cx="181" cy="176" r=".4" fill="#fff"/>
<circle cx="167" cy="208" r=".4" fill="#fff"/>
<circle cx="186" cy="214" r=".4" fill="#fff"/>
<circle cx="187" cy="210" r=".4" fill="#fff"/>
<circle cx="192" cy="213" r=".4" fill="#fff"/>
<circle cx="191" cy="211" r=".4" fill="#fff"/>
<circle cx="200" cy="204" r=".4" fill="#fff"/>
<circle cx="213" cy="205" r=".4" fill="#fff"/>
<circle cx="210" cy="193" r=".4" fill="#fff"/>
<circle cx="221" cy="189" r=".4" fill="#fff"/>
<circle cx="242" cy="177" r=".4" fill="#fff"/>
<circle cx="242" cy="169" r=".4" fill="#fff"/>
<circle cx="257" cy="159" r=".4" fill="#fff"/>
<circle cx="273" cy="158" r=".4" fill="#fff"/>
<circle cx="264" cy="135" r=".4" fill="#fff"/>
<circle cx="258" cy="128" r=".4" fill="#fff"/>
<circle cx="287" cy="124" r=".4" fill="#fff"/>
<circle cx="270" cy="109" r=".4" fill="#fff"/>
<circle cx="266" cy="94" r=".4" fill="#fff"/>
<circle cx="255" cy="79" r=".4" fill="#fff"/>
<circle cx="285" cy="61" r=".4" fill="#fff"/>
<circle cx="302" cy="16" r=".4" fill="#fff"/>
<circle cx="242" cy="25" r=".4" fill="#fff"/>
<circle cx="225" cy="30" r=".4" fill="#fff"/>
<circle cx="302" cy="78" r=".4" fill="#fff"/>
<circle cx="245" cy="79" r=".4" fill="#fff"/>
<circle cx="230" cy="87" r=".4" fill="#fff"/>
<circle cx="228" cy="97" r=".4" fill="#fff"/>
<circle cx="238" cy="104" r=".4" fill="#fff"/>
<circle cx="229" cy="75" r=".4" fill="#fff"/>
<circle cx="266" cy="100" r=".4" fill="#fff"/>
<circle cx="286" cy="117" r=".4" fill="#fff"/>
<circle cx="276" cy="165" r=".4" fill="#fff"/>
<circle cx="280" cy="176" r=".4" fill="#fff"/>
<circle cx="284" cy="178" r=".4" fill="#fff"/>
<circle cx="303" cy="187" r=".4" fill="#fff"/>
<circle cx="301" cy="181" r=".4" fill="#fff"/>
<circle cx="301" cy="166" r=".4" fill="#fff"/>
<circle cx="264" cy="184" r=".4" fill="#fff"/>
<circle cx="277" cy="190" r=".4" fill="#fff"/>
<circle cx="274" cy="196" r=".4" fill="#fff"/>
<circle cx="259" cy="201" r=".4" fill="#fff"/>
<circle cx="277" cy="202" r=".4" fill="#fff"/>
<circle cx="287" cy="206" r=".4" fill="#fff"/>
<circle cx="188" cy="193" r=".4" fill="#fff"/>
<circle cx="224" cy="274" r=".4" fill="#fff"/>
<circle cx="182" cy="263" r=".4" fill="#fff"/>
<circle cx="112" cy="262" r=".4" fill="#fff"/>
<circle cx="134" cy="267" r=".4" fill="#fff"/>
<circle cx="130" cy="261" r=".4" fill="#fff"/>
<circle cx="140" cy="255" r=".4" fill="#fff"/>
<circle cx="149" cy="257" r=".4" fill="#fff"/>
<circle cx="154" cy="268" r=".9" fill="#fff"/>
<circle cx="53" cy="276" r=".4" fill="#fff"/>
<circle cx="29" cy="299" r=".4" fill="#fff"/>
<circle cx="39" cy="284" r=".4" fill="#fff"/>
<circle cx="61" cy="267" r=".4" fill="#fff"/>
<circle cx="56" cy="236" r=".4" fill="#fff"/>
<circle cx="52" cy="226" r=".4" fill="#fff"/>
<circle cx="76" cy="240" r=".4" fill="#fff"/>
<circle cx="41" cy="221" r=".4" fill="#fff"/>
<circle cx="39" cy="215" r=".4" fill="#fff"/>
<circle cx="28" cy="212" r=".4" fill="#fff"/>
<circle cx="17" cy="213" r=".4" fill="#fff"/>
<circle cx="13" cy="218" r=".4" fill="#fff"/>
<circle cx="55" cy="205" r=".4" fill="#fff"/>
<circle cx="65" cy="210" r=".4" fill="#fff"/>
<circle cx="69" cy="207" r=".9" fill="#fff"/>
<circle cx="64" cy="203" r=".4" fill="#fff"/>
<circle cx="99" cy="186" r=".4" fill="#fff"/>
<circle cx="113" cy="176" r=".4" fill="#fff"/>
<circle cx="117" cy="174" r=".4" fill="#fff"/>
<circle cx="114" cy="174" r=".4" fill="#fff"/>
<circle cx="115" cy="172" r=".4" fill="#fff"/>
<circle cx="115" cy="174" r=".4" fill="#fff"/>
<circle cx="73" cy="166" r=".4" fill="#fff"/>
<circle cx="54" cy="176" r=".4" fill="#fff"/>
<circle cx="53" cy="158" r=".4" fill="#fff"/>
<circle cx="93" cy="139" r=".4" fill="#fff"/>
<circle cx="87" cy="129" r=".4" fill="#fff"/>
<circle cx="87" cy="125" r=".4" fill="#fff"/>
<circle cx="56" cy="120" r=".4" fill="#fff"/>
<circle cx="107" cy="103" r=".4" fill="#fff"/>
<circle cx="123" cy="94" r=".4" fill="#fff"/>
<circle cx="109" cy="75" r=".4" fill="#fff"/>
<circle cx="107" cy="65" r=".4" fill="#fff"/>
<circle cx="134" cy="77" r=".4" fill="#fff"/>
<circle cx="150" cy="67" r=".4" fill="#fff"/>
<circle cx="124" cy="137" r=".4" fill="#fff"/>
<circle cx="137" cy="132" r=".4" fill="#fff"/>
<circle cx="157" cy="140" r=".4" fill="#fff"/>
<circle cx="163" cy="144" r=".4" fill="#fff"/>
<circle cx="193" cy="139" r=".4" fill="#fff"/>
<circle cx="206" cy="147" r=".4" fill="#fff"/>
<circle cx="229" cy="145" r=".4" fill="#fff"/>
<circle cx="233" cy="147" r=".4" fill="#fff"/>
<circle cx="203" cy="116" r=".4" fill="#fff"/>
<circle cx="190" cy="101" r=".4" fill="#fff"/>
<circle cx="187" cy="87" r=".4" fill="#fff"/>
<circle cx="202" cy="64" r=".4" fill="#fff"/>
<circle cx="179" cy="52" r=".4" fill="#fff"/>
<circle cx="178" cy="39" r=".4" fill="#fff"/>
<circle cx="161" cy="39" r=".4" fill="#fff"/>
<circle cx="151" cy="43" r=".4" fill="#fff"/>
<circle cx="188" cy="86" r=".4" fill="#fff"/>
<circle cx="173" cy="160" r=".4" fill="#fff"/>
<circle cx="182" cy="168" r=".4" fill="#fff"/>
<circle cx="142" cy="164" r=".4" fill="#fff"/>
<circle cx="163" cy="137" r=".4" fill="#fff"/>
<circle cx="70" cy="202" r=".4" fill="#fff"/>
<circle cx="77" cy="199" r=".4" fill="#fff"/>
<circle cx="76" cy="197" r=".4" fill="#fff"/>
<circle cx="77" cy="196" r=".4" fill="#fff"/>
<circle cx="80" cy="203" r=".4" fill="#fff"/>
<circle cx="91" cy="205" r=".4" fill="#fff"/>
<circle cx="92" cy="206" r=".4" fill="#fff"/>
<circle cx="89" cy="195" r=".4" fill="#fff"/>
<circle cx="87" cy="221" r=".4" fill="#fff"/>
<circle cx="73" cy="190" r=".4" fill="#fff"/>
<circle cx="70" cy="196" r=".4" fill="#fff"/>
<circle cx="70" cy="199" r=".4" fill="#fff"/>
<circle cx="69" cy="200" r=".4" fill="#fff"/>
<circle cx="67" cy="196" r=".4" fill="#fff"/>
<circle cx="49" cy="199" r=".4" fill="#fff"/>
<circle cx="73" cy="264" r=".4" fill="#fff"/>
<circle cx="29" cy="269" r=".4" fill="#fff"/>
<circle cx="30" cy="266" r=".4" fill="#fff"/>
<circle cx="66" cy="326" r=".4" fill="#fff"/>
<circle cx="48" cy="325" r=".4" fill="#fff"/>
<circle cx="34" cy="344" r=".4" fill="#fff"/>
<circle cx="48" cy="358" r=".4" fill="#fff"/>
<circle cx="12" cy="358" r=".4" fill="#fff"/>
<circle cx="46" cy="346" r=".4" fill="#fff"/>
<circle cx="24" cy="336" r=".4" fill="#fff"/>
<circle cx="14" cy="326" r=".4" fill="#fff"/>
<circle cx="44" cy="309" r=".4" fill="#fff"/>
<circle cx="114" cy="386" r=".4" fill="#fff"/>
<circle cx="197" cy="323" r=".4" fill="#fff"/>
<circle cx="153" cy="334" r=".4" fill="#fff"/>
<circle cx="171" cy="342" r=".4" fill="#fff"/>
<circle cx="172" cy="347" r=".4" fill="#fff"/>
<circle cx="118" cy="371" r=".4" fill="#fff"/>
<circle cx="199" cy="317" r=".4" fill="#fff"/>
<circle cx="283" cy="320" r=".4" fill="#fff"/>
<circle cx="258" cy="308" r=".4" fill="#fff"/>
<circle cx="196" cy="305" r=".4" fill="#fff"/>
<circle cx="230" cy="302" r=".4" fill="#fff"/>
<circle cx="220" cy="388" r=".4" fill="#fff"/>
<circle cx="212" cy="392" r=".4" fill="#fff"/>
<circle cx="213" cy="460" r=".4" fill="#fff"/>
<circle cx="193" cy="442" r=".4" fill="#fff"/>
<circle cx="370" cy="580" r=".4" fill="#fff"/>
<circle cx="322" cy="539" r=".4" fill="#fff"/>
<circle cx="334" cy="521" r=".4" fill="#fff"/>
<circle cx="374" cy="530" r=".4" fill="#fff"/>
<circle cx="416" cy="564" r=".4" fill="#fff"/>
<circle cx="451" cy="553" r=".4" fill="#fff"/>
<circle cx="433" cy="495" r=".9" fill="#fff"/>
<circle cx="418" cy="481" r=".4" fill="#fff"/>
<circle cx="466" cy="493" r=".4" fill="#fff"/>
<circle cx="463" cy="472" r=".4" fill="#fff"/>
<circle cx="457" cy="450" r=".4" fill="#fff"/>
<circle cx="516" cy="455" r=".4" fill="#fff"/>
<circle cx="533" cy="450" r=".4" fill="#fff"/>
<circle cx="544" cy="451" r=".4" fill="#fff"/>
<circle cx="573" cy="421" r=".4" fill="#fff"/>
<circle cx="574" cy="409" r=".4" fill="#fff"/>
<circle cx="546" cy="395" r=".4" fill="#fff"/>
<circle cx="518" cy="396" r=".4" fill="#fff"/>
<circle cx="558" cy="373" r=".4" fill="#fff"/>
<circle cx="553" cy="358" r=".4" fill="#fff"/>
<circle cx="550" cy="347" r=".4" fill="#fff"/>
<circle cx="587" cy="339" r=".4" fill="#fff"/>
<circle cx="594" cy="312" r=".4" fill="#fff"/>
<circle cx="598" cy="354" r=".4" fill="#fff"/>
<circle cx="535" cy="399" r=".4" fill="#fff"/>
<circle cx="510" cy="436" r=".4" fill="#fff"/>
<circle cx="515" cy="426" r=".4" fill="#fff"/>
<circle cx="504" cy="428" r=".4" fill="#fff"/>
<circle cx="495" cy="432" r=".4" fill="#fff"/>
<circle cx="497" cy="421" r=".4" fill="#fff"/>
<circle cx="478" cy="418" r=".4" fill="#fff"/>
<circle cx="482" cy="413" r=".4" fill="#fff"/>
<circle cx="498" cy="408" r=".4" fill="#fff"/>
<circle cx="462" cy="423" r=".4" fill="#fff"/>
<circle cx="459" cy="415" r=".4" fill="#fff"/>
<circle cx="444" cy="422" r=".4" fill="#fff"/>
<circle cx="419" cy="414" r=".4" fill="#fff"/>
<circle cx="438" cy="408" r=".4" fill="#fff"/>
<circle cx="436" cy="381" r=".4" fill="#fff"/>
<circle cx="455" cy="394" r=".4" fill="#fff"/>
<circle cx="460" cy="381" r=".4" fill="#fff"/>
<circle cx="482" cy="379" r=".4" fill="#fff"/>
<circle cx="476" cy="397" r=".4" fill="#fff"/>
<circle cx="483" cy="405" r=".4" fill="#fff"/>
<circle cx="453" cy="444" r=".4" fill="#fff"/>
<circle cx="440" cy="459" r=".4" fill="#fff"/>
<circle cx="424" cy="455" r=".4" fill="#fff"/>
<circle cx="427" cy="455" r=".4" fill="#fff"/>
<circle cx="404" cy="448" r=".4" fill="#fff"/>
<circle cx="383" cy="419" r=".4" fill="#fff"/>
<circle cx="373" cy="404" r=".4" fill="#fff"/>
<circle cx="371" cy="404" r=".4" fill="#fff"/>
<circle cx="376" cy="400" r=".4" fill="#fff"/>
<circle cx="403" cy="396" r=".4" fill="#fff"/>
<circle cx="381" cy="361" r=".4" fill="#fff"/>
<circle cx="345" cy="371" r=".4" fill="#fff"/>
<circle cx="340" cy="372" r=".4" fill="#fff"/>
<circle cx="310" cy="364" r=".4" fill="#fff"/>
<circle cx="329" cy="335" r=".4" fill="#fff"/>
<circle cx="334" cy="320" r=".4" fill="#fff"/>
<circle cx="326" cy="305" r=".4" fill="#fff"/>
<circle cx="312" cy="298" r=".4" fill="#fff"/>
<circle cx="360" cy="301" r=".4" fill="#fff"/>
<circle cx="358" cy="291" r=".4" fill="#fff"/>
<circle cx="363" cy="291" r=".4" fill="#fff"/>
<circle cx="361" cy="282" r=".4" fill="#fff"/>
<circle cx="353" cy="278" r=".4" fill="#fff"/>
<circle cx="335" cy="274" r=".4" fill="#fff"/>
<circle cx="360" cy="266" r=".4" fill="#fff"/>
<circle cx="363" cy="270" r=".4" fill="#fff"/>
<circle cx="377" cy="268" r=".4" fill="#fff"/>
<circle cx="364" cy="258" r=".4" fill="#fff"/>
<circle cx="358" cy="355" r=".4" fill="#fff"/>
<circle cx="392" cy="349" r=".4" fill="#fff"/>
<circle cx="406" cy="333" r=".4" fill="#fff"/>
<circle cx="381" cy="320" r=".4" fill="#fff"/>
<circle cx="371" cy="304" r=".4" fill="#fff"/>
<circle cx="429" cy="369" r=".4" fill="#fff"/>
<circle cx="435" cy="367" r=".4" fill="#fff"/>
<circle cx="434" cy="359" r=".4" fill="#fff"/>
<circle cx="450" cy="355" r=".4" fill="#fff"/>
<circle cx="442" cy="342" r=".4" fill="#fff"/>
<circle cx="463" cy="353" r=".4" fill="#fff"/>
<circle cx="475" cy="329" r=".4" fill="#fff"/>
<circle cx="476" cy="325" r=".4" fill="#fff"/>
<circle cx="489" cy="332" r=".4" fill="#fff"/>
<circle cx="493" cy="348" r=".4" fill="#fff"/>
<circle cx="448" cy="310" r=".4" fill="#fff"/>
<circle cx="478" cy="299" r=".4" fill="#fff"/>
<circle cx="482" cy="281" r=".4" fill="#fff"/>
<circle cx="471" cy="269" r=".9" fill="#fff"/>
<circle cx="467" cy="264" r=".4" fill="#fff"/>
<circle cx="474" cy="262" r=".4" fill="#fff"/>
<circle cx="451" cy="259" r=".4" fill="#fff"/>
<circle cx="474" cy="254" r=".4" fill="#fff"/>
<circle cx="466" cy="239" r=".4" fill="#fff"/>
<circle cx="487" cy="255" r=".4" fill="#fff"/>
<circle cx="463" cy="242" r=".4" fill="#fff"/>
<circle cx="473" cy="223" r=".4" fill="#fff"/>
<circle cx="484" cy="212" r=".4" fill="#fff"/>
<circle cx="471" cy="207" r=".4" fill="#fff"/>
<circle cx="462" cy="207" r=".4" fill="#fff"/>
<circle cx="452" cy="212" r=".4" fill="#fff"/>
<circle cx="452" cy="200" r=".4" fill="#fff"/>
<circle cx="445" cy="197" r=".4" fill="#fff"/>
<circle cx="517" cy="201" r=".4" fill="#fff"/>
<circle cx="412" cy="300" r=".4" fill="#fff"/>
<circle cx="405" cy="286" r=".4" fill="#fff"/>
<circle cx="401" cy="273" r=".4" fill="#fff"/>
<circle cx="417" cy="256" r=".4" fill="#fff"/>
<circle cx="420" cy="247" r=".4" fill="#fff"/>
<circle cx="423" cy="242" r=".4" fill="#fff"/>
<circle cx="411" cy="235" r=".4" fill="#fff"/>
<circle cx="394" cy="234" r=".4" fill="#fff"/>
<circle cx="373" cy="241" r=".4" fill="#fff"/>
<circle cx="382" cy="224" r=".4" fill="#fff"/>
<circle cx="371" cy="234" r=".4" fill="#fff"/>
<circle cx="359" cy="209" r=".4" fill="#fff"/>
<circle cx="352" cy="180" r=".4" fill="#fff"/>
<circle cx="346" cy="175" r=".4" fill="#fff"/>
<circle cx="351" cy="172" r=".4" fill="#fff"/>
<circle cx="356" cy="171" r=".4" fill="#fff"/>
<circle cx="355" cy="165" r=".4" fill="#fff"/>
<circle cx="362" cy="163" r=".4" fill="#fff"/>
<circle cx="333" cy="166" r=".4" fill="#fff"/>
<circle cx="315" cy="150" r=".4" fill="#fff"/>
<circle cx="313" cy="143" r=".4" fill="#fff"/>
<circle cx="315" cy="139" r=".4" fill="#fff"/>
<circle cx="341" cy="141" r=".4" fill="#fff"/>
<circle cx="353" cy="151" r=".4" fill="#fff"/>
<circle cx="360" cy="150" r=".4" fill="#fff"/>
<circle cx="360" cy="136" r=".4" fill="#fff"/>
<circle cx="378" cy="138" r=".4" fill="#fff"/>
<circle cx="387" cy="108" r=".4" fill="#fff"/>
<circle cx="369" cy="103" r=".4" fill="#fff"/>
<circle cx="367" cy="86" r=".4" fill="#fff"/>
<circle cx="334" cy="74" r=".4" fill="#fff"/>
<circle cx="338" cy="76" r=".4" fill="#fff"/>
<circle cx="371" cy="84" r=".4" fill="#fff"/>
<circle cx="383" cy="47" r=".4" fill="#fff"/>
<circle cx="390" cy="45" r=".4" fill="#fff"/>
<circle cx="409" cy="58" r=".4" fill="#fff"/>
<circle cx="431" cy="46" r=".4" fill="#fff"/>
<circle cx="437" cy="45" r=".4" fill="#fff"/>
<circle cx="413" cy="32" r=".4" fill="#fff"/>
<circle cx="420" cy="23" r=".4" fill="#fff"/>
<circle cx="417" cy="17" r=".4" fill="#fff"/>
<circle cx="409" cy="14" r=".4" fill="#fff"/>
<circle cx="370" cy="15" r=".4" fill="#fff"/>
<circle cx="363" cy="31" r=".4" fill="#fff"/>
<circle cx="335" cy="38" r=".4" fill="#fff"/>
<circle cx="325" cy="13" r=".4" fill="#fff"/>
<circle cx="340" cy="17" r=".4" fill="#fff"/>
<circle cx="355" cy="9" r=".4" fill="#fff"/>
<circle cx="343" cy="1" r=".4" fill="#fff"/>
<circle cx="323" cy=".4" r=".4" fill="#fff"/>
<circle cx="403" cy="104" r=".4" fill="#fff"/>
<circle cx="416" cy="125" r=".4" fill="#fff"/>
<circle cx="421" cy="116" r=".4" fill="#fff"/>
<circle cx="437" cy="119" r=".4" fill="#fff"/>
<circle cx="451" cy="113" r=".4" fill="#fff"/>
<circle cx="437" cy="93" r=".4" fill="#fff"/>
<circle cx="482" cy="98" r=".4" fill="#fff"/>
<circle cx="479" cy="94" r=".4" fill="#fff"/>
<circle cx="488" cy="81" r=".4" fill="#fff"/>
<circle cx="389" cy="126" r=".4" fill="#fff"/>
<circle cx="328" cy="162" r=".4" fill="#fff"/>
<circle cx="354" cy="215" r=".4" fill="#fff"/>
<circle cx="346" cy="220" r=".4" fill="#fff"/>
<circle cx="336" cy="244" r=".4" fill="#fff"/>
<circle cx="311" cy="248" r=".4" fill="#fff"/>
<circle cx="324" cy="220" r=".4" fill="#fff"/>
<circle cx="324" cy="196" r=".4" fill="#fff"/>
<circle cx="314" cy="192" r=".4" fill="#fff"/>
<circle cx="341" cy="198" r=".4" fill="#fff"/>
<circle cx="349" cy="201" r=".4" fill="#fff"/>
<circle cx="349" cy="197" r=".4" fill="#fff"/>
<circle cx="313" cy="224" r=".4" fill="#fff"/>
<circle cx="355" cy="220" r=".4" fill="#fff"/>
<circle cx="342" cy="221" r=".4" fill="#fff"/>
<circle cx="514" cy="324" r=".4" fill="#fff"/>
<circle cx="510" cy="309" r=".4" fill="#fff"/>
<circle cx="505" cy="299" r=".4" fill="#fff"/>
<circle cx="502" cy="298" r=".4" fill="#fff"/>
<circle cx="507" cy="290" r=".4" fill="#fff"/>
<circle cx="534" cy="288" r=".4" fill="#fff"/>
<circle cx="547" cy="297" r=".4" fill="#fff"/>
<circle cx="571" cy="288" r=".4" fill="#fff"/>
<circle cx="574" cy="288" r=".4" fill="#fff"/>
<circle cx="589" cy="296" r=".4" fill="#fff"/>
<circle cx="593" cy="296" r=".4" fill="#fff"/>
<circle cx="599" cy="294" r=".4" fill="#fff"/>
<circle cx="591" cy="270" r=".4" fill="#fff"/>
<circle cx="595" cy="290" r=".4" fill="#fff"/>
<circle cx="529" cy="273" r=".4" fill="#fff"/>
<circle cx="510" cy="254" r=".4" fill="#fff"/>
<circle cx="530" cy="250" r=".4" fill="#fff"/>
<circle cx="538" cy="247" r=".4" fill="#fff"/>
<circle cx="521" cy="243" r=".4" fill="#fff"/>
<circle cx="501" cy="220" r=".4" fill="#fff"/>
<circle cx="490" cy="223" r=".4" fill="#fff"/>
<circle cx="544" cy="231" r=".4" fill="#fff"/>
<circle cx="519" cy="221" r=".4" fill="#fff"/>
<circle cx="504" cy="213" r=".4" fill="#fff"/>
<circle cx="520" cy="194" r=".4" fill="#fff"/>
<circle cx="522" cy="192" r=".4" fill="#fff"/>
<circle cx="502" cy="191" r=".4" fill="#fff"/>
<circle cx="496" cy="191" r=".4" fill="#fff"/>
<circle cx="482" cy="191" r=".4" fill="#fff"/>
<circle cx="474" cy="179" r=".4" fill="#fff"/>
<circle cx="458" cy="182" r=".4" fill="#fff"/>
<circle cx="460" cy="174" r=".4" fill="#fff"/>
<circle cx="445" cy="182" r=".4" fill="#fff"/>
<circle cx="435" cy="176" r=".4" fill="#fff"/>
<circle cx="411" cy="167" r=".4" fill="#fff"/>
<circle cx="408" cy="184" r=".4" fill="#fff"/>
<circle cx="412" cy="191" r=".4" fill="#fff"/>
<circle cx="415" cy="198" r=".9" fill="#fff"/>
<circle cx="410" cy="197" r=".4" fill="#fff"/>
<circle cx="402" cy="195" r=".4" fill="#fff"/>
<circle cx="398" cy="193" r=".4" fill="#fff"/>
<circle cx="389" cy="176" r=".4" fill="#fff"/>
<circle cx="376" cy="182" r=".4" fill="#fff"/>
<circle cx="374" cy="189" r=".4" fill="#fff"/>
<circle cx="376" cy="145" r=".4" fill="#fff"/>
<circle cx="410" cy="212" r=".4" fill="#fff"/>
<circle cx="419" cy="217" r=".4" fill="#fff"/>
<circle cx="422" cy="216" r=".4" fill="#fff"/>
<circle cx="421" cy="155" r=".4" fill="#fff"/>
<circle cx="416" cy="165" r=".4" fill="#fff"/>
<circle cx="418" cy="181" r=".4" fill="#fff"/>
<circle cx="450" cy="164" r=".4" fill="#fff"/>
<circle cx="455" cy="151" r=".4" fill="#fff"/>
<circle cx="479" cy="148" r=".4" fill="#fff"/>
<circle cx="492" cy="136" r=".4" fill="#fff"/>
<circle cx="487" cy="131" r=".4" fill="#fff"/>
<circle cx="492" cy="131" r=".4" fill="#fff"/>
<circle cx="497" cy="135" r=".4" fill="#fff"/>
<circle cx="498" cy="138" r=".4" fill="#fff"/>
<circle cx="509" cy="132" r=".4" fill="#fff"/>
<circle cx="481" cy="176" r=".4" fill="#fff"/>
<circle cx="515" cy="188" r=".4" fill="#fff"/>
<circle cx="543" cy="169" r=".9" fill="#fff"/>
<circle cx="547" cy="161" r=".4" fill="#fff"/>
<circle cx="564" cy="155" r=".4" fill="#fff"/>
<circle cx="556" cy="185" r=".4" fill="#fff"/>
<circle cx="542" cy="165" r=".4" fill="#fff"/>
<circle cx="580" cy="185" r=".4" fill="#fff"/>
<circle cx="507" cy="178" r=".4" fill="#fff"/>
<circle cx="581" cy="226" r=".4" fill="#fff"/>
<circle cx="351" cy="404" r=".4" fill="#fff"/>
<circle cx="342" cy="407" r=".4" fill="#fff"/>
<circle cx="343" cy="407" r=".4" fill="#fff"/>
<circle cx="330" cy="406" r=".4" fill="#fff"/>
<circle cx="460" cy="486" r=".4" fill="#fff"/>
<circle cx="463" cy="482" r=".4" fill="#fff"/>
<circle cx="497" cy="519" r=".4" fill="#fff"/>
<circle cx="461" cy="544" r=".4" fill="#fff"/>
<circle cx="512" cy="503" r=".4" fill="#fff"/>
<circle cx="415" cy="519" r=".4" fill="#fff"/>
<circle cx="410" cy="515" r=".4" fill="#fff"/>
<circle cx="361" cy="498" r=".4" fill="#fff"/>
<circle cx="365" cy="496" r=".4" fill="#fff"/>
<circle cx="324" cy="504" r=".4" fill="#fff"/>
<circle cx="355" cy="454" r=".4" fill="#fff"/>
<circle cx="355" cy="423" r=".4" fill="#fff"/>
<circle cx="375" cy="462" r=".4" fill="#fff"/>
<circle cx="324" cy="459" r=".4" fill="#fff"/>
<circle cx="322" cy="512" r=".4" fill="#fff"/>
</svg>
