<svg width="1600" height="900" viewBox="0 0 1600 900" xmlns="http://www.w3.org/2000/svg">
    <g opacity="0.05">
        <path fill="#fbf2cb" d="M 950 270 C 950 352.84271247462 882.84271247462 420 800 420 C 717.15728752538 420 650 352.84271247462 650 270 C 650 187.15728752538 717.15728752538 120 800 120 C 882.84271247462 120 950 187.15728752538 950 270 Z"/>
    </g>
    <g opacity="0.2083">
        <path fill="#fbf2cb" d="M 930.67979 270 C 930.67979 342.17245512809 872.17245512809 400.67979 800 400.67979 C 727.82754487191 400.67979 669.32021 342.17245512809 669.32021 270 C 669.32021 197.82754487191 727.82754487191 139.32021 800 139.32021 C 872.17245512809 139.32021 930.67979 197.82754487191 930.67979 270 Z"/>
    </g>
    <g opacity="0.3667">
        <path fill="#fbf2cb" d="M 911.62791 270 C 911.62791 331.65039234848 861.65039234848 381.62791 800 381.62791 C 738.34960765152 381.62791 688.37209 331.65039234848 688.37209 270 C 688.37209 208.34960765152 738.34960765152 158.37209 800 158.37209 C 861.65039234848 158.37209 911.62791 208.34960765152 911.62791 270 Z"/>
    </g>
    <g opacity="0.525">
        <path fill="#fbf2cb" d="M 892.307693 270 C 892.307693 320.98013113596 850.98013113596 362.307693 800 362.307693 C 749.01986886404 362.307693 707.692307 320.98013113596 707.692307 270 C 707.692307 219.01986886404 749.01986886404 177.692307 800 177.692307 C 850.98013113596 177.692307 892.307693 219.01986886404 892.307693 270 Z"/>
    </g>
    <g opacity="0.6833">
        <path fill="#fbf2cb" d="M 873.255814 270 C 873.255814 310.45806890864 840.45806890864 343.255814 800 343.255814 C 759.54193109136 343.255814 726.744186 310.45806890864 726.744186 270 C 726.744186 229.54193109136 759.54193109136 196.744186 800 196.744186 C 840.45806890864 196.744186 873.255814 229.54193109136 873.255814 270 Z"/>
    </g>
    <g opacity="0.8417">
        <path fill="#fbf2cb" d="M 853.935596 270 C 853.935596 299.78780714383 829.78780714383 323.935596 800 323.935596 C 770.21219285617 323.935596 746.064404 299.78780714383 746.064404 270 C 746.064404 240.21219285617 770.21219285617 216.064404 800 216.064404 C 829.78780714383 216.064404 853.935596 240.21219285617 853.935596 270 Z"/>
    </g>
    <path fill="#fbf2cb" d="M 834.88372 270 C 834.88372 289.26574657337 819.26574657337 304.88372 800 304.88372 C 780.73425342663 304.88372 765.11628 289.26574657337 765.11628 270 C 765.11628 250.73425342663 780.73425342663 235.11628 800 235.11628 C 819.26574657337 235.11628 834.88372 250.73425342663 834.88372 270 Z"/>
    <path fill="#ffffff" d="M 812.343471 270 C 812.343471 276.81711079328 806.81711079328 282.343471 800 282.343471 C 793.18288920672 282.343471 787.656529 276.81711079328 787.656529 270 C 787.656529 263.18288920672 793.18288920672 257.656529 800 257.656529 C 806.81711079328 257.656529 812.343471 263.18288920672 812.343471 270 Z"/>
</svg>
